# xmcd
#
# Track frame offsets:
#	150
#	19133
#	35574
#	48622
#	59079
#	71963
#	85702
#	95941
#	109600
#	122740
#	137762
#	151239
#
# Disc length: 2243 seconds
#
# Revision: 0
# Processed by: cddbd v1.5.2PL0 Copyright (c) Steve Scherf et al.
# Submitted via: audiograbber 1.83.01
#
DISCID=ae08c10c
DTITLE=George De Fretes And The South-Sea-Melodians - Island In The Sun
DYEAR=1900
DGENRE=Hawaiin
TTITLE0=Song Of The Islands
TTITLE1=On The Beach At Waikiki
TTITLE2=Forever More
TTITLE3=Hawaiian War Chant
TTITLE4=On A Little Bamboo Bridge
TTITLE5=Marcella Wahini
TTITLE6=Hawaiian One To Ten
TTITLE7=Green Rose Hula
TTITLE8=Lil'ue
TTITLE9=Royal Hawaiian Hula
TTITLE10=Pidgin' English Hula
TTITLE11=Aloha Oe
EXTD=
EXTT0=
EXTT1=
EXTT2=
EXTT3=
EXTT4=
EXTT5=
EXTT6=
EXTT7=
EXTT8=
EXTT9=
EXTT10=
EXTT11=
PLAYORDER=
